<svg id="Capa_1" enable-background="new 0 0 512.001 512.001" height="512" viewBox="0 0 512.001 512.001" width="512" xmlns="http://www.w3.org/2000/svg"><g><path d="m345.828 0-114.73 57.365-50.552 101.105 172.63 173.162 101.458-50.729 57.366-114.73zm54.146 226.242c-15.77 15.77-41.338 15.77-57.108 0l-57.108-57.108c-15.77-15.77-15.77-41.338 0-57.108 15.77-15.77 41.338-15.77 57.108 0l57.108 57.108c15.77 15.77 15.77 41.338 0 57.108z"/><path d="m256.282 276.931-70.476 70.477-21.213-21.213 70.509-70.509-39.627-39.749-88.104 88.105v50.294h-50.295v50.294h-50.294l-6.782 57.076 50.294 50.294 57.077-6.782v-50.294h50.294v-50.294h50.294l87.95-87.95z"/></g></svg>